<svg width="15" height="14" viewBox="0 0 15 14" fill="none" xmlns="http://www.w3.org/2000/svg">
<path d="M13.7795 5.2159L9.58257 4.6414L7.70643 1.05896C7.65518 0.96088 7.57088 0.881477 7.46674 0.833213C7.20557 0.711775 6.8882 0.812974 6.75761 1.05896L4.88148 4.6414L0.684548 5.2159C0.56884 5.23147 0.463048 5.28285 0.382052 5.36069C0.284132 5.45549 0.230174 5.58302 0.232034 5.71526C0.233893 5.84751 0.291419 5.97365 0.39197 6.06597L3.4285 8.85438L2.71111 12.7918C2.69428 12.8834 2.70505 12.9776 2.74217 13.0637C2.7793 13.1498 2.8413 13.2244 2.92115 13.2791C3.001 13.3337 3.0955 13.3662 3.19394 13.3728C3.29238 13.3794 3.39082 13.3599 3.47809 13.3165L7.23202 11.4575L10.9859 13.3165C11.0884 13.3679 11.2074 13.385 11.3215 13.3663C11.6091 13.3196 11.8025 13.0627 11.7529 12.7918L11.0355 8.85438L14.0721 6.06597C14.1547 5.98968 14.2093 5.89004 14.2258 5.78106C14.2704 5.5086 14.0688 5.25638 13.7795 5.2159Z" fill="#3ACC00"/>
</svg>
